<svg width="14" height="14" viewBox="0 0 14 14" fill="none" xmlns="http://www.w3.org/2000/svg">
<path d="M7.00008 13.3059C6.59758 13.3059 6.21841 13.1017 5.95008 12.7459L5.07508 11.5792C5.05758 11.5559 4.98758 11.5267 4.95842 11.5209H4.66675C2.23425 11.5209 0.729248 10.8617 0.729248 7.58342V4.66675C0.729248 2.08841 2.08841 0.729248 4.66675 0.729248H9.33342C11.9117 0.729248 13.2709 2.08841 13.2709 4.66675V7.58342C13.2709 10.1617 11.9117 11.5209 9.33342 11.5209H9.04175C8.99508 11.5209 8.95425 11.5442 8.92508 11.5792L8.05008 12.7459C7.78175 13.1017 7.40258 13.3059 7.00008 13.3059ZM4.66675 1.60425C2.57841 1.60425 1.60425 2.57841 1.60425 4.66675V7.58342C1.60425 10.2201 2.50841 10.6459 4.66675 10.6459H4.95842C5.25592 10.6459 5.59425 10.8151 5.77508 11.0542L6.65008 12.2209C6.85425 12.4892 7.14592 12.4892 7.35008 12.2209L8.22508 11.0542C8.41758 10.7976 8.72092 10.6459 9.04175 10.6459H9.33342C11.4217 10.6459 12.3959 9.67175 12.3959 7.58342V4.66675C12.3959 2.57841 11.4217 1.60425 9.33342 1.60425H4.66675Z" fill="#757D88"/>
<path d="M9.91659 5.10425H4.08325C3.84409 5.10425 3.64575 4.90591 3.64575 4.66675C3.64575 4.42758 3.84409 4.22925 4.08325 4.22925H9.91659C10.1558 4.22925 10.3541 4.42758 10.3541 4.66675C10.3541 4.90591 10.1558 5.10425 9.91659 5.10425Z" fill="#757D88"/>
<path d="M7.58325 8.02075H4.08325C3.84409 8.02075 3.64575 7.82242 3.64575 7.58325C3.64575 7.34409 3.84409 7.14575 4.08325 7.14575H7.58325C7.82242 7.14575 8.02075 7.34409 8.02075 7.58325C8.02075 7.82242 7.82242 8.02075 7.58325 8.02075Z" fill="#757D88"/>
</svg>
