<svg width="14" height="15" viewBox="0 0 14 15" fill="none" xmlns="http://www.w3.org/2000/svg">
<path d="M9.33342 5.16675H4.66675V9.83342H9.33342V5.16675Z" stroke="#757D88" stroke-width="0.875" stroke-linecap="round" stroke-linejoin="round"/>
<path d="M2.91675 13.3333C3.87925 13.3333 4.66675 12.5458 4.66675 11.5833V9.83325H2.91675C1.95425 9.83325 1.16675 10.6208 1.16675 11.5833C1.16675 12.5458 1.95425 13.3333 2.91675 13.3333Z" stroke="#757D88" stroke-width="0.875" stroke-linecap="round" stroke-linejoin="round"/>
<path d="M2.91675 5.16675H4.66675V3.41675C4.66675 2.45425 3.87925 1.66675 2.91675 1.66675C1.95425 1.66675 1.16675 2.45425 1.16675 3.41675C1.16675 4.37925 1.95425 5.16675 2.91675 5.16675Z" stroke="#757D88" stroke-width="0.875" stroke-linecap="round" stroke-linejoin="round"/>
<path d="M9.33325 5.16675H11.0833C12.0458 5.16675 12.8333 4.37925 12.8333 3.41675C12.8333 2.45425 12.0458 1.66675 11.0833 1.66675C10.1208 1.66675 9.33325 2.45425 9.33325 3.41675V5.16675Z" stroke="#757D88" stroke-width="0.875" stroke-linecap="round" stroke-linejoin="round"/>
<path d="M11.0833 13.3333C12.0458 13.3333 12.8333 12.5458 12.8333 11.5833C12.8333 10.6208 12.0458 9.83325 11.0833 9.83325H9.33325V11.5833C9.33325 12.5458 10.1208 13.3333 11.0833 13.3333Z" stroke="#757D88" stroke-width="0.875" stroke-linecap="round" stroke-linejoin="round"/>
</svg>
