<svg width="16" height="17" viewBox="0 0 16 17" fill="none" xmlns="http://www.w3.org/2000/svg">
<path d="M3.33333 7.16675C2.6 7.16675 2 7.76675 2 8.50008C2 9.23341 2.6 9.83341 3.33333 9.83341C4.06667 9.83341 4.66667 9.23341 4.66667 8.50008C4.66667 7.76675 4.06667 7.16675 3.33333 7.16675Z" stroke="#757D88"/>
<path d="M12.6666 7.16675C11.9333 7.16675 11.3333 7.76675 11.3333 8.50008C11.3333 9.23341 11.9333 9.83341 12.6666 9.83341C13.3999 9.83341 13.9999 9.23341 13.9999 8.50008C13.9999 7.76675 13.3999 7.16675 12.6666 7.16675Z" stroke="#757D88"/>
<path d="M8.00008 7.16675C7.26675 7.16675 6.66675 7.76675 6.66675 8.50008C6.66675 9.23341 7.26675 9.83341 8.00008 9.83341C8.73341 9.83341 9.33341 9.23341 9.33341 8.50008C9.33341 7.76675 8.73341 7.16675 8.00008 7.16675Z" stroke="#757D88"/>
</svg>
