<svg width="14" height="14" viewBox="0 0 14 14" fill="none" xmlns="http://www.w3.org/2000/svg">
<path d="M5.24407 12.5418C4.27573 12.5418 3.30157 12.1743 2.56073 11.4335C1.0849 9.95182 1.0849 7.54848 2.56073 6.07265C2.7299 5.90348 3.0099 5.90348 3.17907 6.07265C3.34823 6.24182 3.34823 6.52182 3.17907 6.69098C2.04157 7.82848 2.04157 9.67765 3.17907 10.8152C4.31657 11.9527 6.16573 11.9527 7.30323 10.8152C7.85157 10.2668 8.1549 9.53182 8.1549 8.75015C8.1549 7.97432 7.85157 7.23932 7.30323 6.68515C7.13407 6.51598 7.13407 6.23598 7.30323 6.06682C7.4724 5.89765 7.7524 5.89765 7.92157 6.06682C8.63907 6.78432 9.0299 7.73515 9.0299 8.75015C9.0299 9.76515 8.63323 10.716 7.92157 11.4335C7.18657 12.1743 6.21823 12.5418 5.24407 12.5418Z" fill="#757D88"/>
<path d="M11.1242 8.25997C11.0134 8.25997 10.9025 8.21914 10.815 8.13164C10.6459 7.96247 10.6459 7.68247 10.815 7.51331C12.0109 6.31747 12.0109 4.37497 10.815 3.18497C9.61921 1.98914 7.67671 1.98914 6.48671 3.18497C5.90921 3.76247 5.58838 4.53247 5.58838 5.34914C5.58838 6.16581 5.90921 6.93581 6.48671 7.51331C6.65588 7.68247 6.65588 7.96247 6.48671 8.13164C6.31755 8.30081 6.03755 8.30081 5.86838 8.13164C5.12755 7.39081 4.71338 6.39914 4.71338 5.34914C4.71338 4.29914 5.12171 3.30747 5.86838 2.56664C7.40255 1.03247 9.89921 1.03247 11.4392 2.56664C12.9734 4.10081 12.9734 6.60331 11.4392 8.13747C11.3517 8.21914 11.235 8.25997 11.1242 8.25997Z" fill="#757D88"/>
</svg>
