<svg width="36" height="37" viewBox="0 0 36 37" fill="none" xmlns="http://www.w3.org/2000/svg">
<g id="kebab menu">
<path id="Vector" d="M17 13.5555C18.1 13.5555 19 12.6555 19 11.5555C19 10.4555 18.1 9.55554 17 9.55554C15.9 9.55554 15 10.4555 15 11.5555C15 12.6555 15.9 13.5555 17 13.5555ZM17 15.5555C15.9 15.5555 15 16.4555 15 17.5555C15 18.6555 15.9 19.5555 17 19.5555C18.1 19.5555 19 18.6555 19 17.5555C19 16.4555 18.1 15.5555 17 15.5555ZM17 21.5555C15.9 21.5555 15 22.4555 15 23.5555C15 24.6555 15.9 25.5555 17 25.5555C18.1 25.5555 19 24.6555 19 23.5555C19 22.4555 18.1 21.5555 17 21.5555Z" fill="#494C59"/>
</g>
</svg>
