<svg width="24" height="24" viewBox="0 0 24 24" fill="none" xmlns="http://www.w3.org/2000/svg">
<g id="shorts">
<path id="Vector" fill-rule="evenodd" clip-rule="evenodd" d="M7.61016 15.719L8.00216 15.499V13.259L7.46816 13.031L6.52616 12.627C5.65716 12.255 5.12616 11.477 5.08016 10.653C5.03316 9.83001 5.47016 9.01101 6.28316 8.55601L15.1302 3.59001C16.3612 2.90101 17.9152 3.32001 18.5962 4.42301C19.2482 5.48101 18.9092 6.87501 17.7172 7.54101L16.3902 8.28401L16.0022 8.50101V10.744L16.5322 10.971L17.4742 11.375C18.3432 11.747 18.8742 12.525 18.9202 13.349C18.9672 14.172 18.5302 14.991 17.7172 15.446L17.7152 15.447L8.87016 20.411L8.86916 20.412C7.63816 21.1 6.08516 20.681 5.40416 19.578C4.75216 18.52 5.09116 17.127 6.28316 16.46L7.61016 15.719ZM9.60316 21.721C7.69816 22.787 5.24716 22.181 4.12816 20.366C3.07116 18.653 3.58016 16.476 5.24516 15.341C5.34405 15.2736 5.44581 15.2106 5.55016 15.152L6.87716 14.41L5.93516 14.006C5.68637 13.8997 5.44886 13.7687 5.22616 13.615C4.26316 12.949 3.64816 11.897 3.58216 10.738C3.50216 9.31601 4.26116 7.96801 5.55016 7.24801L14.3972 2.28201C16.3022 1.21601 18.7532 1.82201 19.8722 3.63701C20.9292 5.35001 20.4202 7.52701 18.7552 8.66201C18.6563 8.7298 18.5546 8.7932 18.4502 8.85201L17.1232 9.59401L18.0652 9.99701C18.3182 10.106 18.5552 10.237 18.7742 10.389C19.7372 11.055 20.3522 12.106 20.4182 13.265C20.4982 14.688 19.7392 16.035 18.4502 16.756L9.60316 21.721ZM10.0002 14.567C10.0002 14.6108 10.0117 14.6538 10.0335 14.6917C10.0554 14.7297 10.0868 14.7612 10.1247 14.7832C10.1626 14.8051 10.2055 14.8168 10.2493 14.8169C10.2931 14.8171 10.3361 14.8057 10.3742 14.784L14.8242 12.217C14.8622 12.1951 14.8937 12.1635 14.9157 12.1255C14.9376 12.0875 14.9491 12.0444 14.9491 12.0005C14.9491 11.9566 14.9376 11.9135 14.9157 11.8755C14.8937 11.8375 14.8622 11.806 14.8242 11.784L10.3742 9.21701C10.3362 9.19534 10.2933 9.18399 10.2496 9.18409C10.2059 9.1842 10.163 9.19575 10.1251 9.2176C10.0873 9.23946 10.0558 9.27085 10.0339 9.30864C10.012 9.34644 10.0003 9.38932 10.0002 9.43301V14.567Z" fill="#1A1A1A"/>
</g>
</svg>
